# xmcd
#
# Track frame offsets:
#	150
#	13210
#	25315
#	36764
#	48188
#	61812
#	71476
#	79483
#	91788
#	104516
#	118241
#	132281
#	142244
#	155639
#	167394
#	179903
#	193601
#	206456
#	218732
#	231468
#
# Disc length: 3255 seconds
#
# Revision: 1
# Processed by: cddbd v1.5.2PL0 Copyright (c) Steve Scherf et al.
# Submitted via: audiograbber 1.83.01
#
DISCID=280cb514
DTITLE=Various Artist - No.1 Country Hits-CD 2
DYEAR=1900
DGENRE=Country
TTITLE0=Hank Williams - Jambalaya
TTITLE1=Jimi Reeves with The Cicle O Ranch Boys - Mexican Joe
TTITLE2=Carl Smith - Hey Joe!
TTITLE3=Jean Shepard and Ferlin Husky - A Dear John Letter
TTITLE4=The Davis Sisters - I Forgot Mor,Than You'll Ever Know
TTITLE5=Les Paul and Mary Ford - How High The Moon
TTITLE6=Kitty Wells - It Wasn't God,Who Made Honky Tonk Angels
TTITLE7=Marty Robbins - I'll Go On Alone
TTITLE8=Al Dexter - Rosalita
TTITLE9=Pee Wee King and His Golden West Cowboys - Slow Poke
TTITLE10=Lefty Frizell - Always Late
TTITLE11=Eddy Arnold - I Wanna Play House With You
TTITLE12=Hank Snow - The Rhumba Boogie
TTITLE13=Tennessie Ernie Ford - The Shot Gun Boogie
TTITLE14=Skeets McDonald - Don't Let The Stars Get In Your Eyes
TTITLE15=Red Foley and Ernest Tubb - Goodnight Irene
TTITLE16=Delmore Brothers - Blues Stay Away From Me
TTITLE17=Leon Payne - I Love You Because
TTITLE18=Ernest Tubb and His Texas Troubadours - Blue Christmas
TTITLE19=Gene Autry and The Pinafores - Rudolph,The Red-Nosed Reindeer
EXTD=
EXTT0=
EXTT1=
EXTT2=
EXTT3=
EXTT4=
EXTT5=
EXTT6=
EXTT7=
EXTT8=
EXTT9=
EXTT10=
EXTT11=
EXTT12=
EXTT13=
EXTT14=
EXTT15=
EXTT16=
EXTT17=
EXTT18=
EXTT19=
PLAYORDER=
